<svg width="199" height="43" viewBox="0 0 199 43" fill="none" xmlns="http://www.w3.org/2000/svg">
<g clip-path="url(#clip0_61_857)">
<path d="M36.1674 10.4957L18.1423 0L0.117188 10.4957V31.487L17.9142 41.7545V20.7632L36.1674 10.4957Z" fill="white"/>
<path d="M0.117188 10.4951V31.4864L17.9142 41.7539V20.7626L0.117188 10.4951Z" fill="white"/>
<path d="M36.1593 24.6416L30.4551 28.0641V34.6809L36.1593 31.4866V24.6416Z" fill="white"/>
<path d="M36.1626 19.1661V15.7437L22.4727 23.7294V39.2448L25.8951 37.4195V25.0984L36.1626 19.1661Z" fill="white"/>
<path d="M36.1593 24.6416L30.4551 28.0641V34.6809L36.1593 31.4866V24.6416Z" fill="white"/>
<path d="M36.1596 17.3401V10.4951L17.9062 20.5344V41.7539L23.6104 38.5595V24.4132L36.1596 17.3401Z" fill="#696969"/>
<path d="M36.1583 25.0996V18.7109L24.75 25.0996V38.1051L30.4541 34.6826V28.5221L36.1583 25.0996Z" fill="#696969"/>
<path d="M59.4079 30.2697H50.8794L48.3777 41.7548H44.1133L52.8694 3.43311H57.7022L66.2307 41.7548H61.9096L59.4079 30.2697ZM51.5048 26.7446H58.7824L56.7925 17.022C56.2239 14.2928 55.7122 11.1088 55.2574 8.26596H55.0868C54.6319 11.1657 54.0634 14.4634 53.4948 17.022L51.5048 26.7446Z" fill="white"/>
<path d="M70.4187 41.7547V21.343C70.4187 19.0119 70.2483 16.2827 70.1914 14.2359H74.1145L74.342 18.6139H74.4556C75.3653 15.9985 77.6965 13.8379 80.255 13.8379C80.5962 13.8379 80.8805 13.8379 81.1648 13.8947V18.3296C80.8805 18.3296 80.5962 18.3296 80.255 18.3296C77.469 18.3296 75.4223 20.8882 74.9674 24.0153C74.8537 24.7545 74.7967 25.6073 74.7967 26.517V41.7547H70.4187Z" fill="white"/>
<path d="M84.5791 41.7547V21.343C84.5791 18.1022 84.4084 16.4533 84.3516 14.2359H88.1611L88.3884 17.6473H88.5022C89.696 15.4299 91.7997 13.8379 94.6994 13.8379C97.258 13.8379 99.4185 15.0319 100.442 18.0453H100.556C101.295 16.6807 102.261 15.5436 103.285 14.9182C104.365 14.179 105.673 13.8379 107.094 13.8379C110.79 13.8379 113.69 16.5102 113.69 23.5605V41.7547H109.369V24.527C109.369 20.945 108.857 17.4767 105.502 17.4767C103.683 17.4767 102.091 19.0119 101.465 21.6273C101.352 22.3096 101.295 23.1625 101.295 24.0722V41.7547H96.9737V23.731C96.9737 20.7176 96.462 17.4767 93.1642 17.4767C91.3448 17.4767 89.5822 19.0119 89.0705 21.9685C88.9568 22.6507 88.9 23.4467 88.9 24.2996V41.7547H84.5791Z" fill="white"/>
<path d="M135.643 28.3933H122.907C122.907 36.865 126.262 38.6276 129.389 38.6276C131.322 38.6276 132.857 38.1727 133.937 37.6042L134.677 40.7882C133.141 41.5842 130.81 42.0959 128.593 42.0959C121.997 42.0959 118.586 36.6945 118.586 28.2796C118.586 19.4099 122.395 13.8379 127.911 13.8379C133.483 13.8379 135.757 19.751 135.757 25.8916C135.757 26.9719 135.7 27.711 135.643 28.3933ZM122.964 25.1525H131.549C131.606 19.6942 129.559 17.2493 127.456 17.2493C124.556 17.2493 123.135 21.3999 122.964 25.1525Z" fill="white"/>
<path d="M137.829 14.2358H142.548L145.05 20.149C145.732 21.741 146.3 23.333 146.926 24.925H147.04C147.608 23.2193 148.29 21.6273 148.859 20.149L151.304 14.2358H155.796L149.257 27.8247L155.739 41.7547H151.02L148.404 35.5004C147.779 34.079 147.267 32.6576 146.585 30.7813H146.471C145.902 32.487 145.277 33.9653 144.652 35.5573L142.093 41.7547H137.658L144.197 27.9384L137.829 14.2358Z" fill="white"/>
<path d="M159.824 41.5844V4.00184C161.644 3.54698 163.747 3.2627 166.192 3.2627C169.661 3.2627 172.617 4.00184 174.664 5.93498C176.313 7.47012 177.166 9.74444 177.166 12.4736C177.166 16.3967 175.005 19.467 171.253 20.9453V21.1159C175.687 22.3099 178.36 25.8919 178.36 30.8953C178.36 34.0793 177.336 36.6379 175.631 38.5142C173.47 40.959 169.888 41.9824 165.51 41.9824C162.724 41.9824 161.018 41.8119 159.824 41.5844ZM164.145 6.95841V19.6944H166.135C169.717 19.6944 172.788 16.9653 172.788 12.9284C172.788 9.40329 171.139 6.67412 166.477 6.67412C165.453 6.67412 164.657 6.78784 164.145 6.95841ZM164.145 23.049V38.2867C164.657 38.4004 165.396 38.5142 166.363 38.5142C170.855 38.5142 173.811 35.8419 173.811 30.8953C173.811 25.6076 170.172 23.1059 166.079 23.049H164.145Z" fill="white"/>
<path d="M181.602 40.447L182.568 36.6944C183.819 37.5473 186.15 38.2295 188.026 38.2295C192.063 38.2295 194.451 35.6141 194.451 31.7478C194.451 28.2227 192.404 26.0621 189.391 23.7878C186.321 21.6841 182.17 18.1021 182.17 13.1555C182.17 7.35608 186.207 3.0918 192.291 3.0918C194.679 3.0918 196.726 3.83094 197.635 4.51323L196.612 8.2658C195.645 7.58351 194.053 6.95808 192.063 6.95808C188.254 6.95808 186.491 9.80097 186.491 12.4164C186.491 16.2258 188.481 17.7041 192.12 20.3195C196.726 23.5604 198.772 27.0855 198.772 31.3498C198.772 37.9453 194.167 42.0958 188.026 42.0958C185.411 42.0958 182.682 41.243 181.602 40.447Z" fill="white"/>
</g>
<defs>
<clipPath id="clip0_61_857">
<rect width="199" height="42.6429" fill="white"/>
</clipPath>
</defs>
</svg>
