<svg width="28" height="28" viewBox="0 0 28 28" fill="none" xmlns="http://www.w3.org/2000/svg">
<g clip-path="url(#clip0_71_3866)">
<path d="M12.2227 0.0820465C9.6961 0.410172 7.36641 1.38361 5.35938 2.94767C4.7086 3.4508 3.62579 4.5172 3.10079 5.16798C1.58594 7.04376 0.59063 9.24767 0.164068 11.6539C0.0109429 12.507 -0.0492133 14.5578 0.0492242 15.493C0.382818 18.6156 1.71719 21.4594 3.91016 23.7289C5.90079 25.7852 8.40001 27.1742 11.1125 27.732C12.9391 28.1039 15.1211 28.0985 16.9258 27.7211C22.2797 26.6 26.5563 22.3344 27.7211 16.9477C28.0984 15.1867 28.0984 12.8133 27.7211 11.0524C26.4633 5.22814 21.6399 0.814857 15.75 0.0820465C14.9188 -0.0163918 13.0102 -0.0163918 12.2227 0.0820465ZM14.4266 5.14611C14.5688 5.2172 14.7219 5.35392 14.8094 5.48517L14.957 5.70939L14.9734 9.63048L14.9899 13.557L17.3633 15.4547C19.9117 17.4945 19.9609 17.5438 19.9609 18.025C19.9609 18.4461 19.5891 18.8727 19.157 18.9547C18.7633 19.0313 18.6266 18.9383 15.9469 16.7945C14.525 15.657 13.3109 14.6617 13.2453 14.5742C13.1797 14.4922 13.0977 14.3336 13.0649 14.2242C13.0266 14.093 13.0156 12.6656 13.0266 9.86564L13.043 5.70939L13.1906 5.48517C13.3547 5.23361 13.7156 5.03127 13.9945 5.03127C14.0984 5.03127 14.2899 5.08595 14.4266 5.14611Z" fill="#D7171F"/>
</g>
<defs>
<clipPath id="clip0_71_3866">
<rect width="28" height="28" fill="white"/>
</clipPath>
</defs>
</svg>
