<svg width="54" height="54" viewBox="0 0 54 54" fill="none" xmlns="http://www.w3.org/2000/svg">
<g clip-path="url(#clip0_204_12218)">
<path d="M54 42.7496V8.99963C54 7.20942 53.2888 5.49253 52.023 4.22666C50.7571 2.96079 49.0402 2.24963 47.25 2.24963H6.75C4.95979 2.24963 3.2429 2.96079 1.97703 4.22666C0.711159 5.49253 0 7.20942 0 8.99963L0 42.7496H24.75V47.2496H13.5V51.7496H40.5V47.2496H29.25V42.7496H54ZM6.75 6.74963H47.25C47.8467 6.74963 48.419 6.98669 48.841 7.40864C49.2629 7.8306 49.5 8.4029 49.5 8.99963V29.2496H4.5V8.99963C4.5 8.4029 4.73705 7.8306 5.15901 7.40864C5.58097 6.98669 6.15326 6.74963 6.75 6.74963ZM4.5 33.7496H49.5V38.2496H4.5V33.7496Z" fill="#D7171F"/>
</g>
<defs>
<clipPath id="clip0_204_12218">
<rect width="54" height="54" fill="white"/>
</clipPath>
</defs>
</svg>
