<svg width="21" height="20" viewBox="0 0 21 20" fill="none" xmlns="http://www.w3.org/2000/svg">
<path fill-rule="evenodd" clip-rule="evenodd" d="M20.9711 9.90612C20.9711 7.1532 21.4848 1.92844 18.1783 0.695993C16.1609 -0.055984 12.8215 0.0303548 10.6099 0.0303548C10.7074 3.10469 10.6387 6.29878 12.5215 8.08481C13.4222 8.93921 14.4435 9.33972 16.0795 9.60191C17.5621 9.83951 19.4265 9.86868 20.9711 9.90614L20.9711 9.90612Z" fill="#1C1C1C"/>
<path fill-rule="evenodd" clip-rule="evenodd" d="M4.36342 19.7292C6.26492 20.0298 8.45896 19.9944 10.3876 19.9944C10.2922 16.9309 10.3562 13.7188 8.47761 11.9387C7.62644 11.1322 6.47872 10.6494 4.88003 10.4163C3.36177 10.1949 1.59538 10.156 0.0266382 10.1187C0.0266382 13.886 -0.611888 18.9429 4.36344 19.7292L4.36342 19.7292Z" fill="#1C1C1C"/>
<path fill-rule="evenodd" clip-rule="evenodd" d="M0.0263185 9.90625C3.23389 9.83421 6.62722 9.85865 8.47679 8.08567C9.33184 7.26604 9.81157 6.2152 10.0664 4.69704C10.3116 3.23614 10.3365 1.54533 10.3873 0.0304657C5.5522 0.0304657 0.730514 -0.727113 0.155489 5.31328C0.0113928 6.82697 0.0263185 8.38754 0.0263185 9.90625Z" fill="#1C1C1C"/>
<path fill-rule="evenodd" clip-rule="evenodd" d="M10.6099 19.9949C13.0951 19.9949 17.6833 20.1645 19.4417 18.5788C21.1347 17.0521 20.9709 12.4642 20.9709 10.1191C19.4149 10.1533 17.5785 10.1822 16.0714 10.4217C14.4264 10.6832 13.4237 11.0898 12.5211 11.9403C10.6477 13.706 10.7082 16.9417 10.6099 19.9949L10.6099 19.9949Z" fill="#1C1C1C"/>
</svg>
