<svg width="34" height="33" viewBox="0 0 34 33" fill="none" xmlns="http://www.w3.org/2000/svg">
<path fill-rule="evenodd" clip-rule="evenodd" d="M33.9533 16.3454C33.9533 11.8031 34.7851 3.18223 29.4317 1.14868C26.1654 -0.0920807 20.7588 0.0503784 17.178 0.0503784C17.3359 5.12302 17.2246 10.3933 20.273 13.3402C21.7312 14.75 23.3848 15.4108 26.0336 15.8434C28.434 16.2355 31.4525 16.2836 33.9533 16.3454L33.9533 16.3454Z" fill="#1C1C1C"/>
<path fill-rule="evenodd" clip-rule="evenodd" d="M7.06459 32.5538C10.1432 33.0496 13.6955 32.9913 16.8181 32.9913C16.6635 27.9365 16.7672 22.6365 13.7257 19.6994C12.3476 18.3687 10.4893 17.5721 7.90101 17.1874C5.44287 16.8221 2.58299 16.758 0.0431285 16.6963C0.0431285 22.9124 -0.990675 31.2563 7.06462 32.5537L7.06459 32.5538Z" fill="#1C1C1C"/>
<path fill-rule="evenodd" clip-rule="evenodd" d="M0.0428259 16.3453C5.23604 16.2264 10.73 16.2668 13.7245 13.3414C15.1089 11.989 15.8856 10.2551 16.2982 7.75011C16.6953 5.33963 16.7355 2.5498 16.8178 0.0502684C8.98948 0.0502684 1.18295 -1.19974 0.25196 8.76691C0.0186605 11.2645 0.0428259 13.8394 0.0428259 16.3453Z" fill="#1C1C1C"/>
<path fill-rule="evenodd" clip-rule="evenodd" d="M17.178 32.9913C21.2017 32.9913 28.6303 33.2711 31.4772 30.6547C34.2182 28.1357 33.953 20.5656 33.953 16.6963C31.4337 16.7527 28.4606 16.8004 26.0204 17.1956C23.3571 17.6269 21.7337 18.2978 20.2724 19.7013C17.2393 22.6146 17.3372 27.9534 17.178 32.9913L17.178 32.9913Z" fill="#1C1C1C"/>
</svg>
