<svg width="22" height="22" viewBox="0 0 22 22" fill="none" xmlns="http://www.w3.org/2000/svg">
<g clip-path="url(#clip0_148_7363)">
<path d="M13.7505 22H8.25055V18.7798C7.2947 18.4416 6.40938 17.9301 5.63897 17.2709L2.84863 18.8833L0.0986328 14.1167L2.88805 12.5079C2.70482 11.511 2.70482 10.489 2.88805 9.49208L0.0986328 7.88333L2.84863 3.11667L5.63897 4.72908C6.40938 4.06993 7.2947 3.55844 8.25055 3.22025V0H13.7505V3.22025C14.7064 3.55844 15.5917 4.06993 16.3621 4.72908L19.1525 3.11667L21.9025 7.88333L19.1131 9.49208C19.2963 10.489 19.2963 11.511 19.1131 12.5079L21.9025 14.1167L19.1525 18.8833L16.3621 17.2718C15.5916 17.9307 14.7063 18.4418 13.7505 18.7798V22ZM10.0839 20.1667H11.9172V17.3919L12.6056 17.2141C13.735 16.9215 14.7629 16.3259 15.5784 15.4917L16.0761 14.9848L18.4805 16.3735L19.3972 14.7858L16.9956 13.3989L17.1844 12.7151C17.4948 11.5903 17.4948 10.4024 17.1844 9.27758L16.9956 8.59375L19.3972 7.20683L18.4805 5.61917L16.0761 7.01158L15.5784 6.50833C14.7625 5.6754 13.7346 5.0811 12.6056 4.78958L11.9172 4.60808V1.83333H10.0839V4.60808L9.39547 4.78592C8.26612 5.07847 7.23819 5.67406 6.42272 6.50833L5.92497 7.01525L3.52055 5.62283L2.60388 7.2105L5.00555 8.59742L4.81672 9.28125C4.50629 10.4061 4.50629 11.5939 4.81672 12.7188L5.00555 13.4026L2.60388 14.7895L3.52055 16.3772L5.92497 14.9884L6.42272 15.4953C7.23863 16.3283 8.26652 16.9226 9.39547 17.2141L10.0839 17.3919V20.1667ZM11.0005 14.6667C10.2754 14.6667 9.56644 14.4516 8.96346 14.0487C8.36048 13.6458 7.89051 13.0732 7.61299 12.4032C7.33547 11.7332 7.26286 10.9959 7.40434 10.2847C7.54582 9.57341 7.89503 8.92007 8.40782 8.40728C8.92062 7.89448 9.57395 7.54527 10.2852 7.40379C10.9965 7.26231 11.7337 7.33492 12.4037 7.61244C13.0737 7.88996 13.6464 8.35993 14.0493 8.96291C14.4522 9.56589 14.6672 10.2748 14.6672 11C14.6672 11.9725 14.2809 12.9051 13.5933 13.5927C12.9056 14.2804 11.973 14.6667 11.0005 14.6667ZM11.0005 9.16667C10.6379 9.16667 10.2835 9.27419 9.982 9.47564C9.68051 9.67709 9.44553 9.96342 9.30677 10.2984C9.16801 10.6334 9.1317 11.002 9.20244 11.3577C9.27318 11.7133 9.44779 12.04 9.70419 12.2964C9.96058 12.5528 10.2873 12.7274 10.6429 12.7981C10.9985 12.8688 11.3671 12.8325 11.7021 12.6938C12.0371 12.555 12.3235 12.32 12.5249 12.0185C12.7264 11.7171 12.8339 11.3626 12.8339 11C12.8339 10.5138 12.6407 10.0475 12.2969 9.70364C11.9531 9.35982 11.4868 9.16667 11.0005 9.16667Z" fill="#D11317"/>
</g>
<defs>
<clipPath id="clip0_148_7363">
<rect width="22" height="22" fill="white"/>
</clipPath>
</defs>
</svg>
