<svg width="54" height="54" viewBox="0 0 54 54" fill="none" xmlns="http://www.w3.org/2000/svg">
<g clip-path="url(#clip0_204_12198)">
<path d="M47.25 15.75H40.1985C41.758 14.3282 42.9937 12.5879 43.8221 10.6469C44.6505 8.70598 45.0522 6.60969 45 4.5H40.5C40.5 10.9823 36.0653 14.1908 31.158 15.3C32.6315 12.6715 33.5159 9.75418 33.75 6.75C33.75 4.95979 33.0388 3.2429 31.773 1.97703C30.5071 0.711159 28.7902 0 27 0C25.2098 0 23.4929 0.711159 22.227 1.97703C20.9612 3.2429 20.25 4.95979 20.25 6.75C20.4841 9.75418 21.3685 12.6715 22.842 15.3C17.9348 14.1908 13.5 10.9823 13.5 4.5H9C8.94778 6.60969 9.34947 8.70598 10.1779 10.6469C11.0063 12.5879 12.242 14.3282 13.8015 15.75H6.75C4.95979 15.75 3.2429 16.4612 1.97703 17.727C0.711159 18.9929 0 20.7098 0 22.5L0 31.5H4.5V54H49.5V31.5H54V22.5C54 20.7098 53.2888 18.9929 52.023 17.727C50.7571 16.4612 49.0402 15.75 47.25 15.75ZM27 4.5C27.5967 4.5 28.169 4.73705 28.591 5.15901C29.0129 5.58097 29.25 6.15326 29.25 6.75C28.9784 9.14136 28.2121 11.45 27 13.5293C25.7879 11.45 25.0216 9.14136 24.75 6.75C24.75 6.15326 24.9871 5.58097 25.409 5.15901C25.831 4.73705 26.4033 4.5 27 4.5ZM4.5 22.5C4.5 21.9033 4.73705 21.331 5.15901 20.909C5.58097 20.4871 6.15326 20.25 6.75 20.25H24.75V27H4.5V22.5ZM9 31.5H24.75V49.5H9V31.5ZM45 49.5H29.25V31.5H45V49.5ZM49.5 27H29.25V20.25H47.25C47.8467 20.25 48.419 20.4871 48.841 20.909C49.2629 21.331 49.5 21.9033 49.5 22.5V27Z" fill="#D7171F"/>
</g>
<defs>
<clipPath id="clip0_204_12198">
<rect width="54" height="54" fill="white"/>
</clipPath>
</defs>
</svg>
