<svg width="263" height="35" viewBox="0 0 263 35" fill="none" xmlns="http://www.w3.org/2000/svg">
<path d="M259.31 0L260.459 2.34567L262.998 2.71604L261.124 4.56789L261.547 7.16047L259.31 5.92591L257.013 7.16047L257.436 4.56789L255.622 2.71604L258.162 2.34567L259.31 0Z" fill="#D20A11"/>
<path d="M223.164 11.7903H226.187V20.247H229.754V11.7903H232.777V20.247H234.107V25.1236H231.507V22.9014H223.164V11.7903Z" fill="#D20A11"/>
<path d="M235.255 14.8762H239.97V16.7898H237.431V17.9009H239.729V19.691H237.431V20.9873H239.97V22.9009H235.255V14.8762Z" fill="#D20A11"/>
<path d="M241.174 14.8762H243.351V17.7774H246.011V14.8762H248.187V22.9009H246.011V19.691H243.351V22.9009H241.174V14.8762Z" fill="#D20A11"/>
<path d="M251.034 16.7898H249.281V14.8762H254.964V16.7898H253.211V22.9009H251.034V16.7898Z" fill="#D20A11"/>
<path d="M255.927 14.8762H259.252C261.489 14.8762 262.094 16.4811 262.094 17.5923C262.094 18.7034 261.429 20.3083 259.252 20.3083H258.164V22.9626H255.988V14.8762H255.927ZM258.104 18.4565H258.708C259.676 18.4565 259.797 17.9009 259.797 17.5305C259.797 17.1602 259.676 16.6046 258.708 16.6046H258.104V18.4565Z" fill="#D20A11"/>
<path d="M182.958 26.7288H186.283C188.52 26.7288 189.124 28.3337 189.124 29.4448C189.124 30.5559 188.459 32.1608 186.283 32.1608H185.195V34.8152H183.018V26.7288H182.958ZM185.134 30.309H185.739C186.706 30.309 186.827 29.7534 186.827 29.3831C186.827 28.951 186.706 28.4572 185.739 28.4572H185.134V30.309Z" fill="#D20A11"/>
<path d="M191.91 26.7288H194.57L197.351 34.7534H194.993L194.57 33.3337H191.91L191.487 34.7534H189.129L191.91 26.7288ZM192.333 31.6053H194.147L193.24 28.6423L192.333 31.6053Z" fill="#D20A11"/>
<path d="M198.556 27.2222C198.919 26.9753 199.886 26.4814 201.216 26.4814C202.97 26.4814 204.239 27.4074 204.239 28.7654C204.239 29.5679 203.755 30.3086 202.97 30.5555V30.6172C203.635 30.8024 204.421 31.2962 204.421 32.5308C204.421 34.074 203.03 34.9999 201.277 34.9999C200.188 34.9999 199.463 34.753 198.193 33.8271L199.1 32.3456C199.644 32.9012 200.43 33.2715 201.035 33.2715C202.002 33.2715 202.184 32.716 202.184 32.4073C202.184 31.9135 201.881 31.5432 200.914 31.5432H199.644V29.9382H200.914C201.942 29.9382 202.063 29.4444 202.063 29.1358C202.063 28.6419 201.639 28.3333 200.914 28.3333C200.249 28.3333 199.826 28.5802 199.342 28.8888L198.556 27.2222Z" fill="#D20A11"/>
<path d="M205.755 26.7288H209.08C211.317 26.7288 211.922 28.3337 211.922 29.4448C211.922 30.5559 211.257 32.1608 209.08 32.1608H207.992V34.8152H205.816V26.7288H205.755ZM207.992 30.309H208.597C209.564 30.309 209.685 29.7534 209.685 29.3831C209.685 28.951 209.564 28.4572 208.597 28.4572H207.992V30.309Z" fill="#D20A11"/>
<path d="M214.693 26.7288H217.353L220.134 34.7534H217.777L217.353 33.3337H214.693L214.27 34.7534H211.912L214.693 26.7288ZM215.116 31.6053H216.93L216.023 28.6423L215.116 31.6053Z" fill="#D20A11"/>
<path d="M221.652 26.7288H227.456V28.6423H223.828V29.8769H224.977C225.582 29.8769 228.061 29.8769 228.061 32.2843C228.061 34.8152 225.521 34.7534 224.977 34.7534H221.592V26.7288H221.652ZM224.796 33.1485C225.461 33.1485 225.884 32.9633 225.884 32.2843C225.884 31.667 225.461 31.4201 224.796 31.4201H223.828V33.0868H224.796V33.1485Z" fill="#D20A11"/>
<path d="M229.091 30.7407C229.091 28.5802 230.421 26.4814 233.323 26.4814C236.225 26.4814 237.555 28.5802 237.555 30.7407C237.555 32.9012 236.225 34.9999 233.323 34.9999C230.421 34.9999 229.091 32.9012 229.091 30.7407ZM235.318 30.7407C235.318 29.1975 234.411 28.395 233.383 28.395C232.355 28.395 231.448 29.1358 231.448 30.7407C231.448 32.3456 232.355 33.0864 233.383 33.0864C234.35 33.0864 235.318 32.2839 235.318 30.7407Z" fill="#D20A11"/>
<path d="M240.09 28.6423H238.337V26.7288H244.02V28.6423H242.266V34.7534H240.09V28.6423Z" fill="#D20A11"/>
<path d="M245.29 26.7288H247.467V30.1238L249.825 26.7288H252.424L249.462 30.6176L252.545 34.7534H249.764L247.467 31.2967V34.7534H245.29V26.7288Z" fill="#D20A11"/>
<path d="M256.114 26.7288V31.5436L259.137 26.7288H261.314V34.7534H259.198V29.9386L256.175 34.7534H253.998V26.7288H256.114Z" fill="#D20A11"/>
<path d="M203.643 19.8763C202.736 19.8146 201.708 19.6294 200.922 19.4442C200.801 19.3825 200.136 19.1356 200.015 19.0738C197.234 17.7776 195.239 14.8763 195.239 11.4813C195.239 6.85166 198.927 3.14797 203.401 3.14797C207.875 3.14797 211.502 6.85166 211.563 11.4195H214.525C214.465 5.185 209.507 0.185018 203.401 0.185018C197.234 0.185018 192.277 5.30846 192.277 11.543C192.277 15.864 194.635 19.6294 198.141 21.543C198.746 21.9133 199.653 22.222 199.955 22.3454C200.922 22.6541 202.192 22.8393 203.28 22.9627C203.643 22.9627 204.912 23.0244 205.336 23.0244H219.966V19.9998H205.336C205.094 19.938 203.945 19.938 203.643 19.8763ZM205.396 15.185C205.154 15.185 204.066 15.185 203.824 15.185C203.461 15.185 202.978 15.1232 202.615 14.9998C202.252 14.8763 201.889 14.7529 201.769 14.6911C200.68 14.0739 199.894 12.901 199.894 11.543C199.894 9.56771 201.466 7.96277 203.401 7.96277C205.336 7.96277 206.847 9.50597 206.907 11.4195H209.749C209.689 7.90104 206.847 5.06155 203.401 5.06155C199.894 5.06155 197.053 7.96278 197.053 11.543C197.053 14.0739 198.504 16.2343 200.559 17.3455C200.862 17.5306 201.466 17.7158 201.648 17.7776C202.252 17.9627 203.038 18.0245 203.643 18.0862C203.885 18.0862 205.033 18.0862 205.275 18.0862H219.966V15.185H205.396ZM190.463 22.901H187.501V3.14797H183.148V0.123291H190.463V22.901ZM179.883 4.69118V7.5924H183.148V22.901H185.989V4.69118H179.883Z" fill="#D20A11"/>
<path fill-rule="evenodd" clip-rule="evenodd" d="M203.643 19.8763C202.736 19.8146 201.708 19.6294 200.922 19.4442C200.801 19.3825 200.136 19.1356 200.015 19.0738C197.234 17.7776 195.239 14.8763 195.239 11.4813C195.239 6.85166 198.927 3.14797 203.401 3.14797C207.875 3.14797 211.502 6.85166 211.563 11.4195H214.525C214.465 5.185 209.507 0.185018 203.401 0.185018C197.234 0.185018 192.277 5.30846 192.277 11.543C192.277 15.864 194.635 19.6294 198.141 21.543C198.746 21.9133 199.653 22.222 199.955 22.3454C200.922 22.6541 202.192 22.8393 203.28 22.9627C203.643 22.9627 204.912 23.0244 205.336 23.0244H219.966V19.9998H205.336C205.094 19.938 203.945 19.938 203.643 19.8763ZM205.396 15.185C205.154 15.185 204.066 15.185 203.824 15.185C203.461 15.185 202.978 15.1232 202.615 14.9998C202.252 14.8763 201.889 14.7529 201.769 14.6911C200.68 14.0739 199.894 12.901 199.894 11.543C199.894 9.56771 201.466 7.96277 203.401 7.96277C205.336 7.96277 206.847 9.50597 206.907 11.4195H209.749C209.689 7.90104 206.847 5.06155 203.401 5.06155C199.894 5.06155 197.053 7.96278 197.053 11.543C197.053 14.0739 198.504 16.2343 200.559 17.3455C200.862 17.5306 201.466 17.7158 201.648 17.7776C202.252 17.9627 203.038 18.0245 203.643 18.0862C203.885 18.0862 205.033 18.0862 205.275 18.0862H219.966V15.185H205.396ZM190.463 22.901H187.501V3.14797H183.148V0.123291H190.463V22.901ZM179.883 4.69118V7.5924H183.148V22.901H185.989V4.69118H179.883Z" fill="#D11317"/>
<g clip-path="url(#clip0_201_294)">
<path d="M29.5196 8.56632L14.8079 0L0.0961914 8.56632V25.6989L14.6217 34.0791V16.9464L29.5196 8.56632Z" fill="#D11317"/>
<path d="M0.0961914 8.56592V25.6985L14.6217 34.0787V16.946L0.0961914 8.56592Z" fill="#D11317"/>
<path d="M29.5126 20.1118L24.8569 22.9052V28.3057L29.5126 25.6985V20.1118Z" fill="#D11317"/>
<path d="M29.5157 15.6432V12.8499L18.3423 19.3677V32.0309L21.1356 30.5412V20.485L29.5157 15.6432Z" fill="#D11317"/>
<path d="M29.5126 20.1118L24.8569 22.9052V28.3057L29.5126 25.6985V20.1118Z" fill="#D11317"/>
<path d="M29.5127 14.1526V8.56592L14.6147 16.7598V34.0787L19.2704 31.4715V19.9256L29.5127 14.1526Z" fill="white"/>
<path d="M29.5119 20.4858V15.2715L20.2007 20.4858V31.1006L24.8562 28.3072V23.2791L29.5119 20.4858Z" fill="white"/>
<path d="M48.488 24.7054H41.5272L39.4854 34.0793H36.0049L43.1514 2.802H47.0959L54.0566 34.0793H50.5298L48.488 24.7054ZM42.0377 21.8283H47.9775L46.3534 13.8929C45.8893 11.6655 45.4717 9.06677 45.1004 6.74647H44.9612C44.59 9.11318 44.1259 11.8047 43.6619 13.8929L42.0377 21.8283Z" fill="#D11317"/>
<path d="M57.4741 34.0793V17.4197C57.4741 15.5171 57.335 13.2896 57.2886 11.619H60.4906L60.6762 15.1923H60.7689C61.5114 13.0576 63.414 11.2942 65.5023 11.2942C65.7807 11.2942 66.0128 11.2942 66.2448 11.3406V14.9602C66.0128 14.9602 65.7807 14.9602 65.5023 14.9602C63.2284 14.9602 61.5579 17.0485 61.1866 19.6008C61.0938 20.2041 61.0473 20.9001 61.0473 21.6426V34.0793H57.4741Z" fill="#D11317"/>
<path d="M69.0314 34.0793V17.4197C69.0314 14.7746 68.8921 13.4288 68.8457 11.619H71.9549L72.1405 14.4034H72.2334C73.2077 12.5935 74.9247 11.2942 77.2914 11.2942C79.3796 11.2942 81.143 12.2687 81.9783 14.7282H82.0711C82.6744 13.6145 83.4633 12.6864 84.2986 12.1759C85.1803 11.5726 86.2476 11.2942 87.4078 11.2942C90.4241 11.2942 92.7908 13.4752 92.7908 19.2295V34.0793H89.264V20.0184C89.264 17.0949 88.8463 14.2641 86.1084 14.2641C84.6234 14.2641 83.3241 15.5171 82.8136 17.6517C82.7208 18.2086 82.6744 18.9047 82.6744 19.6472V34.0793H79.1476V19.3688C79.1476 16.9093 78.7299 14.2641 76.0384 14.2641C74.5534 14.2641 73.1149 15.5171 72.6972 17.9302C72.6044 18.487 72.558 19.1367 72.558 19.8328V34.0793H69.0314Z" fill="#D11317"/>
<path d="M110.709 23.174H100.314C100.314 30.0884 103.052 31.527 105.604 31.527C107.182 31.527 108.435 31.1558 109.317 30.6917L109.92 33.2904C108.667 33.9401 106.765 34.3577 104.955 34.3577C99.5717 34.3577 96.7874 29.9492 96.7874 23.0812C96.7874 15.8419 99.8965 11.2942 104.398 11.2942C108.946 11.2942 110.802 16.1204 110.802 21.1322C110.802 22.0139 110.755 22.6171 110.709 23.174ZM100.361 20.5289H107.368C107.414 16.074 105.744 14.0785 104.027 14.0785C101.66 14.0785 100.5 17.4661 100.361 20.5289Z" fill="#D11317"/>
<path d="M112.493 11.6191H116.344L118.386 16.4453C118.943 17.7447 119.407 19.044 119.918 20.3434H120.01C120.474 18.9512 121.031 17.6519 121.495 16.4453L123.491 11.6191H127.157L121.82 22.7101L127.11 34.0794H123.259L121.124 28.9748C120.614 27.8147 120.196 26.6545 119.639 25.1231H119.546C119.082 26.5153 118.572 27.7219 118.061 29.0212L115.973 34.0794H112.354L117.69 22.8029L112.493 11.6191Z" fill="#D11317"/>
<path d="M130.445 33.9402V3.26611C131.93 2.89487 133.647 2.66284 135.642 2.66284C138.473 2.66284 140.886 3.26611 142.556 4.8439C143.902 6.09685 144.598 7.95309 144.598 10.1806C144.598 13.3825 142.835 15.8884 139.772 17.095V17.2342C143.392 18.2087 145.573 21.1323 145.573 25.216C145.573 27.8147 144.737 29.9029 143.345 31.4343C141.582 33.4297 138.658 34.265 135.085 34.265C132.811 34.265 131.419 34.1258 130.445 33.9402ZM133.971 5.6792V16.0741H135.596C138.519 16.0741 141.025 13.8466 141.025 10.5518C141.025 7.67466 139.679 5.44717 135.874 5.44717C135.039 5.44717 134.389 5.53998 133.971 5.6792ZM133.971 18.812V31.2487C134.389 31.3415 134.992 31.4343 135.781 31.4343C139.447 31.4343 141.86 29.2532 141.86 25.216C141.86 20.9002 138.89 18.8584 135.549 18.812H133.971Z" fill="#D11317"/>
<path d="M148.219 33.0121L149.007 29.9494C150.028 30.6455 151.931 31.2023 153.462 31.2023C156.757 31.2023 158.706 29.0677 158.706 25.9121C158.706 23.0349 157.036 21.2715 154.576 19.4153C152.07 17.6983 148.683 14.7748 148.683 10.7375C148.683 6.0041 151.977 2.52368 156.943 2.52368C158.892 2.52368 160.562 3.12695 161.305 3.68382L160.47 6.74658C159.681 6.18972 158.381 5.67926 156.757 5.67926C153.648 5.67926 152.209 7.99956 152.209 10.1342C152.209 13.2434 153.834 14.4499 156.804 16.5846C160.562 19.2297 162.233 22.1068 162.233 25.5873C162.233 30.9703 158.474 34.3579 153.462 34.3579C151.328 34.3579 149.1 33.6618 148.219 33.0121Z" fill="#D11317"/>
</g>
<defs>
<clipPath id="clip0_201_294">
<rect width="162.419" height="34.8041" fill="white"/>
</clipPath>
</defs>
</svg>
