<svg width="27" height="19" viewBox="0 0 27 19" fill="none" xmlns="http://www.w3.org/2000/svg">
<path d="M1.09433 1.07922C0.708259 1.2582 0.388228 1.61103 0.276471 1.97921C0.225673 2.1275 0.200273 2.28091 0.215513 2.3167C0.230752 2.35761 3.15167 4.3161 6.70249 6.67345L13.159 10.9535L19.6155 6.67345C23.1663 4.3161 26.0872 2.35761 26.1025 2.3167C26.1177 2.28091 26.0923 2.1275 26.0415 1.97921C25.9298 1.61103 25.6097 1.2582 25.2237 1.07922L24.9189 0.930928H13.159H1.39912L1.09433 1.07922Z" fill="#696969"/>
<path d="M0.153442 9.93602C0.153442 13.0809 0.163602 15.6581 0.173762 15.6581C0.209321 15.6581 8.8146 10.1764 8.88572 10.1099C8.9416 10.0536 8.90604 10.0127 8.68253 9.86443C8.53013 9.76727 6.54899 8.4582 4.28337 6.9497L0.153442 4.20884V9.93602Z" fill="#696969"/>
<path d="M21.7726 7.11901C19.3749 8.71444 17.409 10.0389 17.409 10.0644C17.409 10.1156 26.1108 15.674 26.1413 15.6433C26.1514 15.6331 26.1565 13.061 26.1514 9.92635L26.1362 4.22474L21.7726 7.11901Z" fill="#696969"/>
<path d="M5.31058 14.2572C2.51665 16.0368 0.225637 17.5299 0.215477 17.5759C0.179918 17.7293 0.367873 18.1589 0.565988 18.389C0.682825 18.5168 0.901259 18.6856 1.07905 18.7725L1.38893 18.931H13.159H24.929L25.2389 18.7725C25.4167 18.6856 25.6351 18.5168 25.7519 18.389C25.9399 18.1742 26.1126 17.7958 26.1126 17.6015C26.1126 17.5401 25.4675 17.1004 24.1467 16.2618C23.0596 15.5714 20.7635 14.109 19.0414 13.0095L15.9072 11.0153L14.688 11.8232C14.0124 12.2681 13.3926 12.6465 13.3114 12.6669C13.225 12.6874 13.0878 12.6874 13.0015 12.6669C12.9151 12.6465 12.3716 12.3141 11.7925 11.9306C11.2185 11.5471 10.6648 11.184 10.5682 11.1226L10.3904 11.0204L5.31058 14.2572Z" fill="#696969"/>
</svg>
