<svg width="29" height="20" viewBox="0 0 29 20" fill="none" xmlns="http://www.w3.org/2000/svg">
<path d="M1.0196 0.782722C0.601231 0.975392 0.254425 1.35523 0.133318 1.75158C0.0782695 1.91122 0.0507452 2.07636 0.0672598 2.1149C0.0837743 2.15894 3.24907 4.2673 7.09696 6.80503L14.0936 11.4126L21.0903 6.80503C24.9382 4.2673 28.1035 2.15894 28.12 2.1149C28.1365 2.07636 28.109 1.91122 28.0539 1.75158C27.9328 1.35523 27.586 0.975392 27.1677 0.782722L26.8374 0.623082H14.0936H1.34989L1.0196 0.782722Z" fill="#D7171F"/>
<path d="M0 10.3171C0 13.7026 0.0110097 16.4771 0.0220194 16.4771C0.0605534 16.4771 9.38578 10.5758 9.46284 10.5043C9.5234 10.4437 9.48486 10.3997 9.24265 10.2401C9.07751 10.1355 6.93061 8.72622 4.47545 7.10228L0 4.15168V10.3171Z" fill="#D7171F"/>
<path d="M23.4279 7.2847C20.8296 9.00221 18.6992 10.428 18.6992 10.4555C18.6992 10.5105 28.129 16.4943 28.1621 16.4613C28.1731 16.4503 28.1786 13.6813 28.1731 10.3069L28.1566 4.16895L23.4279 7.2847Z" fill="#D7171F"/>
<path d="M5.58859 14.9691C2.56092 16.8847 0.0782311 18.4922 0.0672214 18.5417C0.0286874 18.7068 0.232367 19.1693 0.447056 19.417C0.573668 19.5546 0.810377 19.7363 1.00305 19.8298L1.33884 20.0005H14.0936H26.8483L27.1841 19.8298C27.3768 19.7363 27.6135 19.5546 27.7401 19.417C27.9438 19.1858 28.131 18.7784 28.131 18.5692C28.131 18.5032 27.4319 18.0298 26.0006 17.127C24.8226 16.3838 22.3344 14.8094 20.4682 13.6259L17.0717 11.479L15.7506 12.3487C15.0184 12.8277 14.3468 13.235 14.2587 13.257C14.1652 13.2791 14.0165 13.2791 13.9229 13.257C13.8294 13.235 13.2403 12.8772 12.6128 12.4643C11.9907 12.0515 11.3907 11.6606 11.2861 11.5946L11.0934 11.4845L5.58859 14.9691Z" fill="#D7171F"/>
</svg>
