<svg width="22" height="22" viewBox="0 0 22 22" fill="none" xmlns="http://www.w3.org/2000/svg">
<g clip-path="url(#clip0_148_7377)">
<path d="M18.3331 10.9996C17.7708 10.9995 17.216 11.129 16.7117 11.3779C16.2075 11.6268 15.7673 11.9886 15.4255 12.4351L15.3613 12.4076C15.6134 11.6266 15.6512 10.7923 15.4707 9.99171C15.2902 9.19113 14.8981 8.4537 14.3353 7.85642C13.7725 7.25914 13.0597 6.82394 12.2712 6.59625C11.4828 6.36856 10.6476 6.35674 9.85306 6.56204L9.76964 6.40437C10.4355 5.81195 10.8624 4.99704 10.9705 4.11238C11.0785 3.22771 10.8602 2.334 10.3565 1.59875C9.85284 0.863495 9.0983 0.337164 8.23432 0.118394C7.37035 -0.100376 6.45625 0.00343282 5.66333 0.410365C4.87041 0.817298 4.25311 1.49942 3.92711 2.3289C3.6011 3.15838 3.58878 4.07827 3.89244 4.91618C4.19611 5.7541 4.79492 6.45251 5.57665 6.88054C6.35838 7.30857 7.26937 7.43683 8.13889 7.24129L8.20581 7.36687C7.28919 8.07025 6.67258 9.09434 6.47977 10.2335C6.28696 11.3727 6.53222 12.5427 7.16631 13.5085L5.43839 15.1246C4.65736 14.6931 3.74578 14.5612 2.87447 14.7536C2.00316 14.9461 1.23192 15.4496 0.705275 16.1699C0.178631 16.8903 -0.06727 17.7779 0.0136506 18.6665C0.0945712 19.5552 0.49676 20.3838 1.14485 20.9971C1.79294 21.6105 2.64245 21.9665 3.53419 21.9983C4.42593 22.0302 5.29869 21.7358 5.98893 21.1704C6.67917 20.6049 7.13951 19.8071 7.28369 18.9265C7.42787 18.0459 7.246 17.143 6.77214 16.3869L8.45698 14.812C9.38234 15.4305 10.5014 15.6907 11.6047 15.5437C12.7079 15.3967 13.7199 14.8528 14.4511 14.0136L14.7068 14.1227C14.5959 14.8629 14.7141 15.6193 15.0456 16.2903C15.377 16.9613 15.9059 17.5148 16.5612 17.8765C17.2165 18.2381 17.9667 18.3906 18.7112 18.3134C19.4556 18.2362 20.1586 17.933 20.7257 17.4446C21.2928 16.9562 21.6969 16.3059 21.8837 15.5812C22.0704 14.8564 22.0309 14.0919 21.7704 13.3902C21.5099 12.6885 21.041 12.0834 20.4265 11.6561C19.8121 11.2287 19.0816 10.9997 18.3331 10.9996ZM5.49981 3.66629C5.49981 3.30369 5.60733 2.94923 5.80878 2.64774C6.01023 2.34625 6.29656 2.11127 6.63156 1.97251C6.96656 1.83375 7.33518 1.79744 7.69081 1.86818C8.04644 1.93892 8.37311 2.11353 8.62951 2.36992C8.8859 2.62632 9.06051 2.95299 9.13125 3.30862C9.20199 3.66425 9.16568 4.03288 9.02692 4.36787C8.88816 4.70287 8.65318 4.9892 8.35169 5.19065C8.0502 5.3921 7.69574 5.49962 7.33314 5.49962C6.84691 5.49962 6.3806 5.30647 6.03678 4.96265C5.69297 4.61883 5.49981 4.15252 5.49981 3.66629ZM3.66648 20.1663C3.30388 20.1663 2.94942 20.0588 2.64793 19.8573C2.34644 19.6559 2.11146 19.3695 1.9727 19.0345C1.83394 18.6995 1.79763 18.3309 1.86837 17.9753C1.93911 17.6197 2.11372 17.293 2.37011 17.0366C2.62651 16.7802 2.95318 16.6056 3.30881 16.5348C3.66444 16.4641 4.03307 16.5004 4.36806 16.6392C4.70306 16.7779 4.98939 17.0129 5.19084 17.3144C5.39229 17.6159 5.49981 17.9704 5.49981 18.333C5.49981 18.8192 5.30666 19.2855 4.96284 19.6293C4.61902 19.9731 4.15271 20.1663 3.66648 20.1663ZM10.9998 13.7496C10.4046 13.7485 9.82585 13.5542 9.35046 13.1961C8.87507 12.8379 8.52871 12.3352 8.36339 11.7634C8.19808 11.1916 8.22273 10.5817 8.43366 10.0251C8.64459 9.46851 9.0304 8.99539 9.53314 8.67679L9.90623 8.47787C10.2811 8.3148 10.6876 8.23737 11.0962 8.2512C11.5048 8.26503 11.9051 8.36978 12.2681 8.55782C12.6311 8.74587 12.9476 9.01248 13.1946 9.33825C13.4416 9.66402 13.6128 10.0408 13.6958 10.441C13.7789 10.8413 13.7716 11.2551 13.6746 11.6522C13.5776 12.0494 13.3933 12.4199 13.135 12.7368C12.8768 13.0537 12.5511 13.3091 12.1818 13.4843C11.8124 13.6595 11.4086 13.7501 10.9998 13.7496ZM18.3331 16.4996C17.9705 16.4996 17.6161 16.3921 17.3146 16.1906C17.0131 15.9892 16.7781 15.7029 16.6394 15.3679C16.5006 15.0329 16.4643 14.6643 16.535 14.3086C16.6058 13.953 16.7804 13.6263 17.0368 13.3699C17.2932 13.1135 17.6198 12.9389 17.9755 12.8682C18.3311 12.7974 18.6997 12.8337 19.0347 12.9725C19.3697 13.1113 19.6561 13.3463 19.8575 13.6477C20.059 13.9492 20.1665 14.3037 20.1665 14.6663C20.1665 15.1525 19.9733 15.6188 19.6295 15.9626C19.2857 16.3065 18.8194 16.4996 18.3331 16.4996Z" fill="#D11317"/>
</g>
<defs>
<clipPath id="clip0_148_7377">
<rect width="22" height="22" fill="white"/>
</clipPath>
</defs>
</svg>
