<svg width="29" height="29" viewBox="0 0 29 29" fill="none" xmlns="http://www.w3.org/2000/svg">
<path d="M0.473418 0.132105C0.357816 0.203667 0.20368 0.357803 0.132117 0.473406C0.0110097 0.677084 0 0.743143 0 1.56887C0 2.54873 0.110097 3.89742 0.269738 5.01491C1.44778 12.9859 6.06635 19.9606 12.9915 24.2324C16.999 26.704 22.0855 28.1793 26.6105 28.1848C27.4362 28.1848 27.5023 28.1793 27.7114 28.0527C27.8381 27.9812 27.9922 27.8215 28.0638 27.7004L28.1849 27.4802V24.5461V21.6065L28.0527 21.2928C27.8876 20.8854 27.6454 20.5881 27.3041 20.368C26.9573 20.1423 26.6765 20.0597 26.0049 19.9826C24.1168 19.7679 22.4543 19.344 20.6432 18.6119L19.7349 18.2486H19.1844C18.689 18.2486 18.6009 18.2651 18.3036 18.4082C17.7366 18.689 17.5825 18.9037 16.7733 20.5111C16.3769 21.3093 16.0301 21.9644 16.0081 21.9644C15.9366 21.9644 15.0172 21.4084 14.3401 20.957C11.1308 18.8101 8.57106 16.1237 6.56179 12.7878C6.37462 12.4795 6.22049 12.2043 6.22049 12.1822C6.22049 12.1602 6.87556 11.8079 7.67377 11.4116C9.28119 10.6023 9.49587 10.4482 9.77662 9.8812C9.91975 9.58394 9.93626 9.49586 9.93626 9.00043V8.44994L9.57294 7.54164C8.82428 5.69201 8.48849 4.38736 8.20223 2.23496C8.08113 1.28812 7.94901 0.957832 7.55817 0.561483C7.42605 0.429367 7.17283 0.25321 7.00218 0.176144L6.6884 0.0275116L3.68825 0.0109978L0.688107 -1.14441e-05L0.473418 0.132105Z" fill="#888888"/>
</svg>
