<svg width="20" height="20" viewBox="0 0 20 20" fill="none" xmlns="http://www.w3.org/2000/svg">
<path d="M0.335938 0.09375C0.253906 0.144531 0.144531 0.253906 0.09375 0.335938C0.0078125 0.480469 0 0.527344 0 1.11328C0 1.80859 0.078125 2.76562 0.191406 3.55859C1.02734 9.21484 4.30469 14.1641 9.21875 17.1953C12.0625 18.9492 15.6719 19.9961 18.8828 20C19.4688 20 19.5156 19.9961 19.6641 19.9062C19.7539 19.8555 19.8633 19.7422 19.9141 19.6562L20 19.5V17.418V15.332L19.9062 15.1094C19.7891 14.8203 19.6172 14.6094 19.375 14.4531C19.1289 14.293 18.9297 14.2344 18.4531 14.1797C17.1133 14.0273 15.9336 13.7266 14.6484 13.207L14.0039 12.9492H13.6133C13.2617 12.9492 13.1992 12.9609 12.9883 13.0625C12.5859 13.2617 12.4766 13.4141 11.9023 14.5547C11.6211 15.1211 11.375 15.5859 11.3594 15.5859C11.3086 15.5859 10.6562 15.1914 10.1758 14.8711C7.89844 13.3477 6.08203 11.4414 4.65625 9.07422C4.52344 8.85547 4.41406 8.66016 4.41406 8.64453C4.41406 8.62891 4.87891 8.37891 5.44531 8.09766C6.58594 7.52344 6.73828 7.41406 6.9375 7.01172C7.03906 6.80078 7.05078 6.73828 7.05078 6.38672V5.99609L6.79297 5.35156C6.26172 4.03906 6.02344 3.11328 5.82031 1.58594C5.73438 0.914062 5.64062 0.679688 5.36328 0.398438C5.26953 0.304688 5.08984 0.179688 4.96875 0.125L4.74609 0.0195312L2.61719 0.0078125L0.488281 0L0.335938 0.09375Z" fill="#D7171F"/>
</svg>
