<svg width="26" height="24" viewBox="0 0 26 24" fill="none" xmlns="http://www.w3.org/2000/svg">
<path d="M0 24V17.8065C0 15.5207 0.319595 13.3088 0.958785 11.1705C1.59798 8.99539 2.50036 6.94931 3.66594 5.03226C4.86913 3.11521 6.2791 1.43779 7.89588 0L11.9002 2.87558C10.1706 5.16129 8.85466 7.46544 7.95228 9.78802C7.08749 12.1106 6.6551 14.7281 6.6551 17.6406V24H0ZM14.0998 24V17.8065C14.0998 15.5207 14.4194 13.3088 15.0586 11.1705C15.6978 8.99539 16.6001 6.94931 17.7657 5.03226C18.9689 3.11521 20.3789 1.43779 21.9957 0L26 2.87558C24.2704 5.16129 22.9544 7.46544 22.0521 9.78802C21.1873 12.1106 20.7549 14.7281 20.7549 17.6406V24H14.0998Z" fill="#D7171F"/>
</svg>
