<svg width="39" height="36" viewBox="0 0 39 36" fill="none" xmlns="http://www.w3.org/2000/svg">
<path d="M0 36V26.7097C0 23.2811 0.479393 19.9631 1.43818 16.7558C2.39696 13.4931 3.75054 10.424 5.49892 7.54839C7.30369 4.67281 9.41866 2.15668 11.8438 0L17.8503 4.31336C15.256 7.74194 13.282 11.1982 11.9284 14.682C10.6312 18.1659 9.98265 22.0922 9.98265 26.4608V36H0ZM21.1497 36V26.7097C21.1497 23.2811 21.6291 19.9631 22.5879 16.7558C23.5466 13.4931 24.9002 10.424 26.6486 7.54839C28.4534 4.67281 30.5683 2.15668 32.9935 0L39 4.31336C36.4056 7.74194 34.4317 11.1982 33.0781 14.682C31.7809 18.1659 31.1323 22.0922 31.1323 26.4608V36H21.1497Z" fill="#D7171F"/>
</svg>
