<svg width="24" height="24" viewBox="0 0 24 24" fill="none" xmlns="http://www.w3.org/2000/svg">
<g clip-path="url(#clip0_148_6334)">
<path d="M15.9998 24H7.99981V19.1L4.14581 21.5L0.0078125 14.855L4.59281 12L0.0078125 9.145L4.14581 2.5L7.99981 4.9V0H15.9998V4.9L19.8538 2.5L23.9918 9.148L19.4068 12L23.9918 14.855L19.8538 21.5L15.9998 19.1V24ZM9.99981 22H13.9998V15.5L19.2128 18.747L21.2378 15.5L15.6238 12L21.2378 8.5L19.2128 5.252L13.9998 8.5V2H9.99981V8.5L4.78681 5.252L2.76181 8.5L8.37581 12L2.76181 15.5L4.78681 18.752L9.99981 15.5V22Z" fill="#D11317"/>
</g>
<defs>
<clipPath id="clip0_148_6334">
<rect width="24" height="24" fill="white"/>
</clipPath>
</defs>
</svg>
