<svg width="25" height="22" viewBox="0 0 25 22" fill="none" xmlns="http://www.w3.org/2000/svg">
<path d="M0.433507 10.1669L6.08878 12.2612L8.27771 19.2462C8.41777 19.6936 8.9691 19.8589 9.33504 19.5621L12.4874 17.0122C12.8178 16.745 13.2885 16.7317 13.6338 16.9804L19.3195 21.0763C19.711 21.3587 20.2656 21.1458 20.3637 20.6765L24.5288 0.797108C24.636 0.284398 24.1283 -0.14332 23.6363 0.0454963L0.426881 8.92951C-0.145878 9.14869 -0.140888 9.95331 0.433507 10.1669ZM7.92494 11.1464L18.9774 4.39192C19.1761 4.27088 19.3804 4.53739 19.2099 4.69438L10.0884 13.1075C9.76774 13.4036 9.56092 13.7999 9.50234 14.2301L9.19162 16.5149C9.15047 16.8199 8.71859 16.8502 8.63375 16.555L7.43874 12.3886C7.30187 11.9134 7.50133 11.4058 7.92494 11.1464Z" fill="#5FA2E8"/>
</svg>
