<svg width="22" height="18" viewBox="0 0 22 18" fill="none" xmlns="http://www.w3.org/2000/svg">
<path d="M20.6737 0.0503864C20.5663 0.0798817 18.8642 0.716122 16.8914 1.4577C14.9186 2.19928 10.6162 3.81305 7.32821 5.04761C4.04019 6.28217 1.19057 7.3524 0.988556 7.43245C0.309461 7.70212 0 7.98021 0 8.33415C0 8.56168 0.107452 8.70915 0.386826 8.85662C0.575941 8.95774 5.5746 10.5167 5.75941 10.5336C5.7938 10.5378 8.43711 8.93668 11.6349 6.97318C14.8283 5.0139 17.506 3.37906 17.5834 3.33692C17.7553 3.25265 18.0261 3.2358 18.1035 3.31164C18.1465 3.35378 18.1422 3.38327 18.0949 3.46333C18.0605 3.51811 15.9115 5.42682 13.324 7.70212L8.61763 11.844L8.4629 13.976C8.37694 15.1474 8.29098 16.285 8.27808 16.4957L8.248 16.8876H8.43711C8.78096 16.8876 8.98297 16.7317 10.397 15.4044L11.7294 14.153L14.2782 15.9817C15.9587 17.1909 16.9086 17.844 17.0633 17.9072C17.2181 17.9662 17.3986 17.9999 17.5791 17.9999C18.0304 18.0041 18.2969 17.8103 18.5204 17.3089C18.5634 17.2036 19.3714 13.5926 20.3084 9.28218C21.9889 1.55461 22.0147 1.44085 21.9975 1.04056C21.9846 0.678202 21.9674 0.610785 21.8514 0.429604C21.6236 0.0672417 21.1422 -0.0886593 20.6737 0.0503864Z" fill="#5FA2E8"/>
</svg>
