<svg width="24" height="20" viewBox="0 0 24 20" fill="none" xmlns="http://www.w3.org/2000/svg">
<path d="M22.3636 0.055584C22.2473 0.088129 20.4062 0.79019 18.2721 1.60848C16.138 2.42677 11.484 4.20749 7.92721 5.56976C4.37043 6.93203 1.28788 8.11298 1.06936 8.20132C0.334756 8.49888 0 8.80574 0 9.19629C0 9.44735 0.116235 9.61008 0.418445 9.77281C0.623018 9.8844 6.03026 11.6047 6.23018 11.6233C6.26738 11.6279 9.12675 9.86115 12.5859 7.69453C16.0404 5.53257 18.937 3.7286 19.0207 3.68211C19.2066 3.58912 19.4995 3.57052 19.5832 3.65421C19.6297 3.70071 19.6251 3.73325 19.5739 3.82159C19.5367 3.88203 17.212 5.98821 14.4131 8.49888L9.32203 13.0692L9.15465 15.4218C9.06166 16.7143 8.96867 17.9697 8.95473 18.2022L8.92218 18.6345H9.12675C9.4987 18.6345 9.71723 18.4625 11.2469 16.998L12.6882 15.6171L15.4453 17.6349C17.2632 18.9693 18.2907 19.69 18.4581 19.7597C18.6255 19.8248 18.8207 19.862 19.016 19.862C19.5042 19.8666 19.7925 19.6528 20.0342 19.0995C20.0807 18.9833 20.9548 14.9987 21.9684 10.2424C23.7863 1.71542 23.8142 1.58988 23.7956 1.14819C23.7816 0.748344 23.763 0.673954 23.6375 0.47403C23.3911 0.0741825 22.8703 -0.0978451 22.3636 0.055584Z" fill="#D7171F"/>
</svg>
