<svg width="22" height="24" viewBox="0 0 22 24" fill="none" xmlns="http://www.w3.org/2000/svg">
<path d="M7.38214 0.0197735C4.48787 0.418175 2.11504 2.12896 0.802661 4.75957C0.550731 5.26343 0.234354 6.24186 0.111318 6.92149C0.0117177 7.43706 0 7.82375 0 10.2317C0 13.2315 0.0117177 13.3838 0.392542 14.5614C1.04873 16.6237 2.46071 18.3404 4.35312 19.3832L4.77495 19.6176V21.6916C4.77495 23.6895 4.78081 23.7715 4.89213 23.8828C4.9683 23.959 5.08547 24 5.22608 24C5.43114 24 5.53074 23.9121 7.23567 22.2189L9.02261 20.432L11.6591 20.4085C14.5358 20.3792 14.6998 20.3675 15.8657 19.9808C18.385 19.1547 20.4122 17.1041 21.2324 14.5497C21.6015 13.4014 21.6191 13.1787 21.6191 10.2024C21.6191 7.82375 21.6074 7.43706 21.5078 6.92149C21.1797 5.16383 20.4181 3.7167 19.135 2.43361C18.1507 1.44933 17.1254 0.810717 15.8716 0.394739C14.7174 0.0139141 14.8053 0.0197735 11.0146 0.00219727C9.11635 -0.00366211 7.48174 0.00219727 7.38214 0.0197735ZM12.8074 3.40618C15.274 3.83388 17.1312 5.80831 17.43 8.31589C17.5004 8.90177 17.4418 9.73373 17.307 10.1614C17.2074 10.4661 16.8969 10.5657 16.6977 10.3489C16.5981 10.2376 16.5981 10.1907 16.6684 9.63999C16.9438 7.46636 15.9243 5.53294 13.9909 4.56037C13.4226 4.27329 12.8543 4.13268 12.0985 4.09752C11.6708 4.07995 11.3779 4.03894 11.2958 3.98621C11.0556 3.83388 11.1494 3.47063 11.454 3.35931C11.6239 3.29486 12.327 3.3183 12.8074 3.40618ZM7.1595 4.82402C7.51689 5.02908 9.31555 6.8629 9.43273 7.14998C9.6085 7.5601 9.48546 8.16356 9.17494 8.43892C9.10464 8.50337 8.882 8.63813 8.6828 8.73187C8.47188 8.83733 8.24924 9.00723 8.14379 9.13613C7.9856 9.34704 7.96802 9.39977 7.96802 9.80989C7.96802 10.1966 7.99731 10.3196 8.16136 10.6653C8.66522 11.7257 9.72567 12.792 10.7744 13.2842C11.1201 13.4482 11.2138 13.4658 11.5712 13.4424C12.0926 13.4131 12.4032 13.2139 12.6317 12.7627C12.825 12.3702 13.0066 12.1769 13.2996 12.0421C13.5984 11.9074 13.8796 11.9015 14.1784 12.0421C14.5358 12.2003 16.5278 14.2626 16.6039 14.5497C16.768 15.1356 16.6684 15.3348 15.772 16.2488C14.9342 17.0983 14.653 17.2858 14.0905 17.3502C12.9187 17.485 10.9736 16.612 9.11049 15.1121C8.4543 14.5848 7.00717 13.1436 6.50917 12.5167C5.49559 11.2394 4.64606 9.73959 4.32968 8.67914C4.1129 7.94678 4.09533 7.05624 4.29453 6.6344C4.44686 6.30045 5.72994 4.95877 6.0639 4.78301C6.37442 4.6131 6.80797 4.63068 7.1595 4.82402ZM13.1004 5.11696C14.3073 5.51536 15.3033 6.5348 15.6783 7.77102C15.7837 8.10497 15.813 8.3569 15.8189 8.81389C15.8189 9.3822 15.8071 9.42907 15.6783 9.53453C15.5025 9.67514 15.3502 9.67514 15.2037 9.52867C15.1041 9.42907 15.0865 9.33533 15.0865 8.89591C15.0865 8.29245 14.9752 7.82961 14.7174 7.33746C14.4889 6.89805 13.9382 6.3356 13.4988 6.08367C13.0535 5.83174 12.3504 5.65598 11.829 5.66769C11.2548 5.68527 11.0263 5.52708 11.1318 5.18727C11.2373 4.85332 12.204 4.81816 13.1004 5.11696ZM12.702 6.69299C13.2586 6.87461 13.8679 7.46636 14.0905 8.04638C14.3542 8.74944 14.2897 9.23573 13.9206 9.23573C13.698 9.23573 13.5691 9.07754 13.5222 8.73187C13.5046 8.57368 13.4519 8.3569 13.405 8.25144C13.2058 7.77688 12.5555 7.30231 12.0926 7.30231C11.829 7.30231 11.5712 7.11483 11.5712 6.92149C11.5712 6.83946 11.6357 6.72814 11.7294 6.65784C11.911 6.51723 12.1747 6.52894 12.702 6.69299Z" fill="#665CAC"/>
</svg>
