<svg width="57" height="33" viewBox="0 0 57 33" fill="none" xmlns="http://www.w3.org/2000/svg">
<path d="M47.2998 18.9231C46.3782 17.7681 46.6419 17.2543 47.2998 16.2219C47.3116 16.2101 54.919 5.77736 55.7028 2.23929L55.7076 2.23693C56.0971 0.947571 55.7076 0 53.8241 0H47.5919C46.0053 0 45.2738 0.813214 44.8819 1.72307C44.8819 1.72307 41.7088 9.26121 37.2199 14.1476C35.7711 15.5595 35.1013 16.0121 34.3104 16.0121C33.9209 16.0121 33.3153 15.5595 33.3153 14.2701V2.23693C33.3153 0.690643 32.8711 0 31.5577 0H21.7581C20.763 0 20.1716 0.721286 20.1716 1.39307C20.1716 2.85921 22.416 3.19629 22.6488 7.32129V16.2714C22.6488 18.2325 22.2901 18.5931 21.4945 18.5931C19.3759 18.5931 14.2339 11.0244 11.1866 2.36186C10.5715 0.681214 9.9706 0.00235697 8.37216 0.00235697H2.13757C0.358637 0.00235697 0 0.815571 0 1.72543C0 3.333 2.11857 11.3261 9.85184 21.8861C15.0058 29.0942 22.264 33 28.8668 33C32.8355 33 33.32 32.1326 33.32 30.6405C33.32 23.7529 32.9614 23.1024 34.9493 23.1024C35.8709 23.1024 37.4574 23.5549 41.1625 27.0317C45.3973 31.1544 46.0932 33 48.4636 33H54.6958C56.4723 33 57.3725 32.1326 56.8547 30.4213C55.6696 26.8219 47.6608 19.4181 47.2998 18.9231Z" fill="#4385CA"/>
</svg>
