<svg width="37" height="22" viewBox="0 0 37 22" fill="none" xmlns="http://www.w3.org/2000/svg">
<path d="M30.3164 12.221C29.7258 11.475 29.8948 11.1432 30.3164 10.4764C30.3241 10.4688 35.2 3.73114 35.7023 1.44618L35.7054 1.44465C35.955 0.611961 35.7054 0 34.4982 0H30.5037C29.4868 0 29.0179 0.525191 28.7667 1.1128C28.7667 1.1128 26.733 5.98108 23.8558 9.1368C22.9272 10.0486 22.498 10.3409 21.991 10.3409C21.7414 10.3409 21.3532 10.0486 21.3532 9.21595V1.44465C21.3532 0.446031 21.0685 0 20.2267 0H13.9457C13.3079 0 12.9288 0.465821 12.9288 0.899675C12.9288 1.84654 14.3674 2.06423 14.5166 4.72824V10.5084C14.5166 11.7749 14.2867 12.0078 13.7767 12.0078C12.4189 12.0078 9.1231 7.11976 7.16999 1.52534C6.77572 0.439942 6.39058 0.00152218 5.36608 0.00152218H1.37006C0.229866 0.00152218 0 0.526713 0 1.11432C0 2.15252 1.35788 7.31461 6.31447 14.1345C9.61784 18.7896 14.27 21.3121 18.5019 21.3121C21.0457 21.3121 21.3562 20.7519 21.3562 19.7883C21.3562 15.3401 21.1264 14.92 22.4005 14.92C22.9912 14.92 24.0081 15.2123 26.3828 17.4576C29.0971 20.1201 29.5431 21.3121 31.0624 21.3121H35.0569C36.1955 21.3121 36.7725 20.7519 36.4406 19.6467C35.681 17.3222 30.5478 12.5406 30.3164 12.221Z" fill="#4385CA"/>
</svg>
