<svg width="22" height="23" viewBox="0 0 22 23" fill="none" xmlns="http://www.w3.org/2000/svg">
<path d="M9.72567 1.06288C7.71784 1.33375 5.89918 2.07325 4.30839 3.26849C3.76237 3.68123 2.87239 4.54542 2.42525 5.10004C1.47507 6.27808 0.782865 7.6496 0.417413 9.09421C0.176646 10.0444 0.107855 10.5603 0.0863576 11.6137C0.0390639 13.5785 0.383018 15.122 1.2386 16.8289C1.37619 17.1126 1.49227 17.362 1.49227 17.3878C1.49227 17.4179 1.15262 18.6819 0.731271 20.2039C0.314227 21.7216 -0.0125292 22.9771 0.000369081 22.9943C0.0175668 23.0071 1.30309 22.689 2.85949 22.2848C4.42018 21.8764 5.7229 21.5453 5.7573 21.5453C5.7917 21.5453 6.04106 21.6485 6.31193 21.7775C7.91991 22.5385 9.54939 22.8782 11.338 22.8223C12.2623 22.7922 12.7955 22.7191 13.6596 22.5084C14.4894 22.302 15.0871 22.0828 15.9168 21.6743C17.0519 21.1154 17.9978 20.4404 18.8619 19.5719C19.7476 18.6862 20.3496 17.8349 20.9042 16.7085C21.4545 15.5906 21.777 14.5201 21.9317 13.299C22.022 12.6068 22.022 11.2439 21.936 10.5388C21.7297 8.85774 21.1277 7.25405 20.1862 5.84384C19.8766 5.3795 19.3306 4.6959 19.0382 4.41213C18.9178 4.29605 18.819 4.18427 18.819 4.16277C18.819 4.05528 17.7742 3.20399 17.0777 2.74826C15.7062 1.84538 14.1627 1.27785 12.4859 1.05858C11.8582 0.976892 10.3362 0.976892 9.72567 1.06288ZM12.3053 2.91163C15.6847 3.36737 18.5911 5.77505 19.6745 9.01682C20.8741 12.6068 19.7132 16.5365 16.7595 18.8926C15.4783 19.9159 13.9305 20.5866 12.2838 20.8402C11.626 20.9391 10.4179 20.9391 9.76866 20.8402C8.59062 20.6554 7.42118 20.2469 6.4667 19.6794C6.28183 19.5719 6.09265 19.4816 6.04536 19.4816C5.98517 19.4816 3.13895 20.2039 2.7348 20.3243C2.67891 20.3372 2.7563 20.0104 3.09166 18.8066C3.32382 17.9596 3.5259 17.2072 3.5388 17.1384C3.56029 17.0309 3.5216 16.9364 3.33672 16.644C2.80359 15.7884 2.38655 14.7566 2.16728 13.7634C1.45357 10.5474 2.66171 7.08638 5.25427 4.91517C7.20191 3.28139 9.72567 2.56338 12.3053 2.91163Z" fill="#2ECC4A"/>
<path d="M6.93202 6.83726C6.55367 6.93615 6.16672 7.3231 5.82277 7.95941C5.5562 8.44955 5.47021 8.8064 5.47021 9.42122C5.47451 10.0661 5.5605 10.4187 5.87866 11.0894C6.22261 11.8117 6.57087 12.3147 7.46945 13.3767C8.83237 14.9976 9.98031 15.8661 11.6141 16.5153C12.7878 16.9839 13.2995 17.1172 13.9186 17.1172C14.6108 17.1172 15.0579 16.9796 15.6685 16.5755C16.2231 16.2057 16.4252 15.9047 16.5584 15.2598C16.6358 14.8772 16.6487 14.5246 16.5842 14.4042C16.5326 14.3097 16.1285 14.0947 16.0554 14.1205C16.0253 14.1291 15.7329 14.0044 15.4019 13.8367C14.3485 13.3122 13.9487 13.1617 13.7552 13.2219C13.7079 13.2391 13.4886 13.4756 13.2694 13.755C12.6932 14.473 12.5428 14.6235 12.388 14.6235C12.2246 14.6235 11.3733 14.228 10.8875 13.927C10.406 13.6261 9.76964 13.0929 9.42139 12.706C8.87966 12.0912 8.32933 11.2786 8.32933 11.0851C8.32933 11.012 8.43252 10.8529 8.65179 10.595C9.01724 10.165 9.23221 9.79527 9.23221 9.59319C9.23221 9.5201 9.17632 9.32663 9.10753 9.17185C9.03874 9.01277 8.84526 8.54413 8.67329 8.13139C8.11436 6.78137 8.15306 6.82436 7.52104 6.81146C7.26737 6.80717 7.00511 6.82006 6.93202 6.83726Z" fill="#2ECC4A"/>
</svg>
