<svg width="21" height="20" viewBox="0 0 21 20" fill="none" xmlns="http://www.w3.org/2000/svg">
<path d="M9.58014 0.0587635C7.76717 0.303341 6.12501 0.971073 4.68861 2.05032C4.19557 2.42301 3.39196 3.20332 2.98822 3.70412C2.13026 4.76784 1.50523 6.00625 1.17524 7.31066C0.957842 8.16862 0.895727 8.63448 0.876317 9.58561C0.833613 11.3598 1.14419 12.7535 1.91674 14.2947C2.04097 14.5509 2.14579 14.7761 2.14579 14.7994C2.14579 14.8265 1.83909 15.9679 1.45864 17.3422C1.08207 18.7126 0.787027 19.8462 0.798673 19.8617C0.814202 19.8734 1.97497 19.5861 3.38032 19.2212C4.78955 18.8524 5.96584 18.5534 5.9969 18.5534C6.02796 18.5534 6.25312 18.6466 6.4977 18.7631C7.94963 19.4502 9.42098 19.7569 11.036 19.7064C11.8706 19.6793 12.352 19.6133 13.1323 19.423C13.8816 19.2367 14.4212 19.0387 15.1705 18.6699C16.1954 18.1652 17.0494 17.5557 17.8298 16.7715C18.6295 15.9718 19.173 15.2031 19.6738 14.186C20.1707 13.1766 20.4619 12.21 20.6016 11.1074C20.6832 10.4824 20.6832 9.25174 20.6055 8.61507C20.4192 7.09714 19.8757 5.64909 19.0255 4.37574C18.746 3.95646 18.2529 3.3392 17.9889 3.08298C17.8802 2.97816 17.7909 2.87722 17.7909 2.85781C17.7909 2.76075 16.8476 1.99208 16.2187 1.58057C14.9802 0.765318 13.5865 0.252872 12.0725 0.0548801C11.5057 -0.0188808 10.1314 -0.0188808 9.58014 0.0587635ZM11.9094 1.7281C14.9608 2.13961 17.5852 4.31362 18.5635 7.24078C19.6466 10.4824 18.5984 14.0307 15.9314 16.1581C14.7745 17.0821 13.3769 17.6877 11.89 17.9168C11.2961 18.006 10.2052 18.006 9.61897 17.9168C8.55525 17.7498 7.4993 17.381 6.63746 16.8686C6.47053 16.7715 6.29971 16.69 6.25701 16.69C6.20266 16.69 3.63266 17.3422 3.26773 17.4509C3.21727 17.4625 3.28714 17.1675 3.58995 16.0805C3.79959 15.3157 3.98205 14.6363 3.9937 14.5742C4.01311 14.4771 3.97817 14.3917 3.81124 14.1278C3.32985 13.3552 2.95328 12.4235 2.75529 11.5267C2.11085 8.62283 3.20174 5.49769 5.54269 3.53719C7.30131 2.06196 9.58014 1.41364 11.9094 1.7281Z" fill="#D7171F"/>
<path d="M7.05675 5.27241C6.71512 5.3617 6.36573 5.7111 6.05515 6.28566C5.81446 6.72823 5.73682 7.05045 5.73682 7.6056C5.7407 8.18793 5.81834 8.50626 6.10562 9.11188C6.4162 9.76409 6.73065 10.2183 7.54203 11.1772C8.77267 12.6408 9.80921 13.425 11.2844 14.0112C12.3443 14.4343 12.8063 14.5547 13.3653 14.5547C13.9903 14.5547 14.3941 14.4305 14.9453 14.0655C15.4461 13.7317 15.6286 13.4599 15.7489 12.8776C15.8188 12.5321 15.8305 12.2137 15.7722 12.105C15.7256 12.0196 15.3607 11.8255 15.2947 11.8488C15.2675 11.8566 15.0036 11.744 14.7046 11.5926C13.7535 11.119 13.3925 10.9831 13.2178 11.0374C13.1751 11.053 12.9771 11.2665 12.7791 11.5188C12.2589 12.1672 12.123 12.303 11.9832 12.303C11.8357 12.303 11.067 11.9459 10.6284 11.6741C10.1935 11.4024 9.61899 10.921 9.30453 10.5716C8.81538 10.0164 8.31846 9.2827 8.31846 9.108C8.31846 9.042 8.41163 8.89836 8.60962 8.66543C8.93961 8.27722 9.13372 7.94335 9.13372 7.76089C9.13372 7.69489 9.08325 7.52019 9.02113 7.38043C8.95902 7.23679 8.78432 6.81364 8.62903 6.44095C8.12435 5.22195 8.15929 5.26077 7.58861 5.24912C7.35956 5.24524 7.12275 5.25689 7.05675 5.27241Z" fill="#D7171F"/>
</svg>
