<svg width="31" height="22" viewBox="0 0 31 22" fill="none" xmlns="http://www.w3.org/2000/svg">
<path d="M30.2596 3.30358C29.9036 2.01178 28.86 0.993467 27.5366 0.645625C25.1188 0 15.4477 0 15.4477 0C15.4477 0 5.77701 0 3.35929 0.621147C2.06132 0.968621 0.992285 2.01196 0.636254 3.30358C0 5.66302 0 10.5562 0 10.5562C0 10.5562 0 15.474 0.636254 17.8088C0.992662 19.1004 2.03586 20.1187 3.35947 20.4666C5.80247 21.1124 15.4481 21.1124 15.4481 21.1124C15.4481 21.1124 25.1188 21.1124 27.5366 20.4912C28.8602 20.1436 29.9036 19.1253 30.26 17.8336C30.896 15.474 30.896 10.581 30.896 10.581C30.896 10.581 30.9215 5.66302 30.2596 3.30358ZM12.3687 15.0767V6.03571L20.4107 10.5562L12.3687 15.0767Z" fill="#D10A11"/>
</svg>
