<svg width="48" height="33" viewBox="0 0 48 33" fill="none" xmlns="http://www.w3.org/2000/svg">
<path d="M47.011 5.16371C46.4579 3.14454 44.8366 1.55285 42.7806 1.00915C39.0244 0 23.9995 0 23.9995 0C23.9995 0 8.97511 0 5.21896 0.970893C3.20245 1.51402 1.5416 3.14483 0.988479 5.16371C0 8.85167 0 16.5 0 16.5C0 16.5 0 24.1869 0.988479 27.8363C1.54219 29.8552 3.1629 31.4469 5.21925 31.9906C9.01467 33 24 33 24 33C24 33 39.0244 33 42.7806 32.0291C44.8369 31.4857 46.4579 29.894 47.0116 27.8751C47.9998 24.1869 47.9998 16.5388 47.9998 16.5388C47.9998 16.5388 48.0393 8.85167 47.011 5.16371ZM19.2159 23.5658V9.4342L31.7098 16.5L19.2159 23.5658Z" fill="#D10A11"/>
</svg>
